<?xml version="1.0" standalone="no"?>
<!DOCTYPE svg PUBLIC "-//W3C//DTD SVG 20010904//EN"
 "http://www.w3.org/TR/2001/REC-SVG-20010904/DTD/svg10.dtd">
<svg version="1.0" xmlns="http://www.w3.org/2000/svg"
 width="1128.000000pt" height="1126.000000pt" viewBox="0 0 1128.000000 1126.000000"
 preserveAspectRatio="xMidYMid meet">
<metadata>
Created by potrace 1.16, written by Peter Selinger 2001-2019
</metadata>
<g transform="translate(0.000000,1126.000000) scale(0.100000,-0.100000)"
fill="#000000" stroke="none">
<path d="M327 10933 c-4 -3 -7 -2397 -7 -5320 l0 -5313 5320 0 5320 0 0 5320
0 5320 -5313 0 c-2923 0 -5317 -3 -5320 -7z m7801 -418 c79 -34 151 -131 152
-205 l0 -35 258 -82 c141 -44 431 -136 645 -204 l387 -123 33 31 c133 127 344
91 418 -72 36 -79 17 -207 -40 -270 -18 -19 -16 -28 83 -310 56 -159 149 -424
206 -589 l103 -298 45 -19 c69 -30 100 -56 132 -112 25 -44 30 -63 30 -123 0
-143 -90 -244 -230 -257 l-44 -4 -132 -203 -132 -204 -437 -177 c-241 -98
-440 -180 -443 -183 -3 -4 20 -101 52 -217 31 -117 54 -214 51 -217 -2 -3
-112 -7 -243 -10 l-239 -5 -6 25 c-4 13 -34 150 -67 304 -33 153 -63 287 -66
297 -4 12 -16 17 -43 17 -89 0 -176 52 -219 131 l-27 49 -315 0 -315 1 -135
175 c-92 118 -140 173 -150 170 -8 -3 -35 -12 -60 -21 -133 -49 -293 45 -324
191 -8 36 10 32 -267 60 l-167 16 -40 -40 c-104 -104 -288 -93 -376 23 -82
108 -69 257 30 344 20 18 46 37 58 42 l21 10 -26 362 c-15 199 -27 363 -28
365 -1 1 -9 2 -19 2 -10 0 -39 13 -63 29 -79 53 -114 121 -113 221 1 77 25
131 80 180 52 46 99 63 169 63 73 0 120 -19 177 -71 l43 -40 620 344 620 344
-3 36 c-4 49 22 133 57 181 59 82 201 118 299 78z m-5357 -4032 c0 -283 1
-297 17 -273 68 99 114 124 232 124 164 -1 237 -63 260 -221 5 -37 10 -179 10
-315 l0 -248 45 0 c33 0 45 -4 45 -15 0 -13 -33 -15 -240 -15 -207 0 -240 2
-240 15 0 10 11 15 35 15 l35 0 0 309 c0 170 -3 323 -6 340 -4 18 -17 39 -30
48 -21 14 -27 13 -61 -4 -29 -13 -45 -33 -68 -77 l-30 -60 -3 -277 -4 -278 38
-3 c21 -2 39 -9 42 -15 3 -10 -50 -13 -243 -13 -193 0 -246 3 -243 13 3 6 25
13 51 15 l47 3 0 600 0 599 -44 0 c-43 0 -63 10 -49 24 3 3 96 6 205 6 l198 0
1 -297z m-497 85 c11 -243 11 -293 -4 -293 -8 0 -29 40 -50 95 -46 120 -91
209 -122 237 -30 29 -89 53 -128 53 l-30 0 0 -555 0 -555 70 0 c56 0 70 -3 70
-15 0 -13 -41 -15 -310 -15 -265 0 -310 2 -310 15 0 11 17 15 73 17 l72 3 3
553 2 552 -37 0 c-53 -1 -115 -31 -146 -72 -32 -42 -87 -159 -116 -249 -15
-44 -27 -66 -37 -66 -15 0 -16 22 -9 206 4 113 9 209 12 214 2 4 226 7 497 7
l493 0 7 -132z m1659 -238 c117 -17 203 -74 245 -163 21 -44 47 -191 36 -208
-3 -5 -110 -9 -240 -9 l-234 0 0 -87 c1 -211 60 -308 190 -308 110 0 194 57
236 158 10 26 25 47 32 47 19 0 15 -22 -19 -88 -56 -112 -138 -159 -294 -169
-268 -16 -431 102 -466 340 -27 179 30 331 155 416 98 67 221 91 359 71z
m4237 -1584 l0 -615 48 -3 c34 -2 47 -7 47 -18 0 -13 -34 -15 -250 -15 -216 0
-250 2 -250 15 0 11 13 16 48 18 l47 3 -2 597 -3 597 -47 3 c-34 2 -48 7 -48
18 0 12 33 14 205 14 l205 0 0 -614z m-1510 557 c41 -24 62 -66 62 -128 1
-102 -58 -159 -166 -159 -110 1 -166 52 -166 152 0 54 16 98 44 121 50 42 167
49 226 14z m-4556 -31 c2 -4 8 -81 12 -170 6 -137 5 -162 -7 -162 -8 0 -27 28
-42 63 -74 167 -175 236 -349 237 l-58 0 0 -260 0 -260 51 0 c94 0 148 44 194
157 13 32 29 59 34 61 8 3 11 -75 11 -247 0 -203 -3 -251 -13 -251 -8 0 -19
19 -26 43 -37 125 -103 187 -199 187 l-52 0 0 -270 0 -270 50 0 c177 0 319 92
398 258 19 41 41 72 49 72 12 0 13 -25 8 -177 -4 -98 -10 -181 -14 -186 -4 -4
-212 -6 -461 -5 -424 3 -455 4 -458 21 -3 14 4 17 47 17 l51 0 0 555 0 555
-50 0 c-35 0 -50 4 -50 13 0 8 3 17 7 20 9 10 861 9 867 -1z m3936 -227 l0
-145 110 0 c91 0 110 -3 110 -15 0 -12 -19 -15 -110 -15 l-110 0 0 -324 c0
-389 1 -396 84 -396 51 0 99 49 122 126 9 32 21 54 29 54 37 0 -22 -147 -77
-194 -53 -45 -109 -59 -215 -54 -133 7 -209 48 -240 131 -8 22 -12 128 -12
329 -1 163 -4 303 -7 312 -4 11 -19 16 -50 16 -32 0 -44 4 -44 14 0 11 14 16
48 18 l47 3 1 105 2 105 138 37 c77 20 147 37 157 37 15 1 17 -12 17 -144z
m-3291 -161 c71 -27 92 -25 116 12 9 13 20 22 25 19 13 -8 13 -242 0 -250 -5
-3 -18 11 -29 32 -60 118 -131 172 -235 180 -113 10 -194 -49 -167 -120 15
-38 49 -56 179 -94 208 -61 279 -115 303 -230 14 -71 5 -144 -27 -210 -45 -94
-142 -143 -281 -143 -71 0 -180 27 -210 52 -19 15 -61 1 -79 -27 -9 -14 -23
-25 -30 -25 -11 0 -14 29 -14 150 0 90 4 150 10 150 5 0 25 -35 45 -77 64
-139 130 -183 276 -183 73 0 91 3 120 23 63 42 64 111 2 153 -17 11 -76 33
-130 48 -245 68 -317 133 -316 286 1 117 43 195 133 244 93 51 190 54 309 10z
m730 -1 c71 -26 94 -23 117 13 9 13 20 24 25 24 5 0 9 -58 9 -130 0 -79 -4
-130 -10 -130 -5 0 -21 22 -34 49 -54 105 -126 159 -225 168 -107 10 -175 -32
-169 -103 4 -50 38 -73 154 -103 236 -62 321 -134 332 -282 9 -130 -41 -224
-146 -276 -52 -26 -67 -28 -167 -28 -99 0 -116 3 -169 28 -32 15 -65 27 -73
27 -8 0 -28 -14 -44 -32 -20 -20 -33 -28 -40 -21 -13 13 -7 285 6 290 6 2 18
-19 28 -46 26 -74 77 -142 130 -175 39 -24 62 -30 127 -34 101 -6 142 2 174
35 19 19 26 36 26 63 0 64 -33 84 -245 145 -126 36 -206 94 -235 170 -19 50
-14 159 10 212 67 153 232 206 419 136z m861 6 c76 -26 120 -65 158 -140 26
-50 34 -81 39 -142 l6 -77 -235 0 c-129 0 -237 -2 -239 -4 -2 -2 -1 -58 2
-123 5 -100 10 -129 32 -177 23 -49 33 -60 73 -78 37 -16 60 -19 104 -15 101
9 171 61 212 157 23 53 24 54 37 46 14 -9 -12 -78 -50 -131 -63 -87 -155 -125
-304 -125 -211 0 -343 77 -406 237 -20 49 -23 77 -24 183 0 116 2 129 28 185
74 159 238 243 442 228 39 -3 95 -14 125 -24z m1056 -3 c28 -13 61 -38 74 -55
45 -64 50 -105 50 -412 l0 -288 48 -3 c34 -2 47 -7 47 -18 0 -13 -33 -15 -235
-15 -202 0 -235 2 -235 15 0 10 12 16 33 18 l33 3 -3 333 c-3 365 -3 366 -63
366 -41 0 -79 -34 -108 -98 -21 -44 -22 -64 -25 -324 l-3 -278 35 0 c29 0 36
-4 36 -20 0 -20 -5 -20 -237 -18 -204 3 -238 5 -238 18 0 11 13 16 48 18 l47
3 -2 367 -3 367 -45 5 c-25 3 -44 10 -43 15 2 6 80 11 203 13 l200 2 0 -72 0
-73 21 35 c29 48 59 79 92 97 73 38 187 37 273 -1z m2049 3 c138 -42 164 -119
165 -480 0 -222 5 -244 50 -237 30 4 49 39 57 108 5 47 17 69 30 57 10 -11
-18 -142 -39 -178 -29 -52 -69 -72 -158 -77 -107 -6 -178 16 -221 67 l-33 38
-20 -30 c-43 -62 -67 -72 -179 -72 -90 0 -107 3 -147 25 -62 35 -90 87 -90
168 0 83 21 126 75 158 53 31 172 54 277 54 l80 0 -3 169 c-4 153 -6 172 -25
198 -25 34 -74 42 -110 18 -21 -14 -25 -23 -22 -58 2 -33 7 -43 23 -45 31 -6
36 -15 37 -65 1 -84 -57 -137 -150 -137 -91 0 -142 49 -142 137 1 83 50 146
142 179 102 37 290 38 403 3z m-735 -373 l0 -385 48 -3 c34 -2 47 -7 47 -18 0
-13 -34 -15 -250 -15 -216 0 -250 2 -250 15 0 11 13 16 48 18 l47 3 -2 367 -3
367 -47 3 c-34 2 -48 7 -48 18 0 12 33 14 205 14 l205 0 0 -384z m-4831 -706
c14 -36 109 -294 211 -575 l187 -510 41 -3 c29 -2 42 -8 42 -18 0 -12 -42 -14
-275 -14 -238 0 -275 2 -275 15 0 12 13 15 55 15 30 0 55 3 55 8 0 4 -26 85
-57 179 l-58 173 -170 0 -170 0 -59 -168 c-33 -92 -61 -173 -64 -179 -3 -10
12 -13 57 -13 48 0 61 -3 61 -15 0 -13 -21 -15 -125 -15 -104 0 -125 2 -125
15 0 11 11 15 38 15 l37 0 112 303 c62 166 153 410 202 543 49 132 96 257 105
278 l15 37 68 -3 67 -3 25 -65z m1041 46 c0 -10 -14 -16 -42 -18 l-43 -3 -3
-557 -2 -558 45 0 c33 0 45 -4 45 -15 0 -13 -35 -15 -255 -15 -220 0 -255 2
-255 15 0 11 12 15 45 15 l45 0 0 560 0 560 -45 0 c-33 0 -45 4 -45 15 0 13
35 15 255 15 215 0 255 -2 255 -14z m-1625 -2341 l33 -100 1 103 c1 95 2 102
21 102 19 0 20 -7 20 -160 l0 -160 -25 0 c-22 0 -27 9 -59 108 l-34 107 -1
-107 c-1 -101 -2 -108 -21 -108 -19 0 -20 7 -20 161 l0 160 26 -3 c23 -3 29
-13 59 -103z m327 -40 c33 -171 33 -175 9 -175 -13 0 -21 9 -26 31 -6 28 -10
30 -43 27 -32 -3 -37 -7 -40 -30 -2 -20 -9 -28 -23 -28 -24 0 -24 -1 6 160 32
169 29 162 62 158 27 -3 28 -6 55 -143z m270 128 c23 -21 26 -114 3 -133 -14
-11 -14 -15 -1 -29 8 -9 16 -43 18 -79 3 -59 2 -62 -19 -62 -21 0 -23 5 -23
58 0 60 -11 82 -42 82 -16 0 -18 -9 -18 -70 0 -68 -1 -70 -25 -70 l-25 0 0
160 0 160 57 0 c38 0 62 -5 75 -17z m278 2 c0 -11 -12 -15 -45 -15 l-45 0 0
-55 0 -55 35 0 c24 0 35 -5 35 -15 0 -10 -11 -15 -35 -15 l-35 0 0 -60 0 -60
45 0 c33 0 45 -4 45 -15 0 -12 -14 -15 -70 -15 l-70 0 0 160 0 160 70 0 c56 0
70 -3 70 -15z m233 -3 c23 -25 26 -65 6 -70 -11 -2 -19 6 -23 23 -8 31 -31 42
-51 25 -27 -22 -17 -58 26 -97 52 -49 73 -88 64 -122 -10 -40 -34 -61 -72 -61
-42 0 -73 30 -73 70 0 23 4 30 20 30 15 0 20 -7 20 -29 0 -21 6 -32 20 -36 28
-9 40 2 40 37 0 24 -12 44 -50 84 -41 43 -50 59 -50 88 0 23 7 43 20 56 25 25
81 26 103 2z m177 -57 l0 -75 35 0 35 0 0 75 c0 68 2 75 20 75 19 0 20 -7 20
-160 0 -153 -1 -160 -20 -160 -18 0 -20 7 -20 70 l0 70 -35 0 -35 0 0 -70 c0
-63 -2 -70 -20 -70 -19 0 -20 7 -20 160 0 153 1 160 20 160 18 0 20 -7 20 -75z
m442 13 l3 -63 33 63 c24 46 38 62 53 62 24 0 25 4 -21 -82 l-34 -66 37 -79
c43 -91 43 -93 19 -93 -13 0 -28 19 -47 60 -16 33 -32 60 -37 60 -4 0 -8 -27
-8 -60 0 -57 -1 -60 -25 -60 l-25 0 0 160 0 160 25 0 c23 0 24 -4 27 -62z
m268 -72 c0 -106 3 -136 15 -146 8 -7 22 -10 30 -6 12 4 15 30 15 146 l0 140
26 0 26 0 -4 -139 c-4 -161 -13 -181 -79 -181 -61 0 -69 20 -69 182 0 131 1
138 20 138 19 0 20 -7 20 -134z m295 37 c26 -141 29 -146 44 -66 30 163 30
163 62 163 l29 0 0 -160 0 -160 -25 0 c-25 0 -25 1 -26 88 l-1 87 -16 -85
c-15 -73 -20 -85 -39 -88 -19 -3 -23 4 -33 55 -27 131 -28 133 -29 36 -1 -86
-3 -93 -21 -93 -19 0 -20 7 -20 160 l0 160 28 0 c28 0 29 -2 47 -97z m387 -48
c33 -171 33 -175 9 -175 -13 0 -21 9 -26 31 -6 28 -10 30 -43 27 -32 -3 -37
-7 -40 -30 -2 -20 -9 -28 -23 -28 -24 0 -24 -1 6 160 32 169 29 162 62 158 27
-3 28 -6 55 -143z m270 128 c23 -21 26 -114 3 -133 -14 -11 -14 -15 -1 -29 8
-9 16 -43 18 -79 3 -59 2 -62 -19 -62 -21 0 -23 5 -23 58 0 60 -11 82 -42 82
-16 0 -18 -9 -18 -70 0 -68 -1 -70 -25 -70 l-25 0 0 160 0 160 57 0 c38 0 62
-5 75 -17z"/>
<path d="M8261 10177 c-5 -13 -21 -37 -36 -55 l-26 -32 306 -529 306 -530 30
11 c42 15 129 5 175 -19 l39 -20 275 268 c245 240 274 270 262 286 -38 53 -56
110 -57 177 l0 69 -625 198 c-344 109 -628 199 -633 199 -4 0 -11 -10 -16 -23z"/>
<path d="M7173 9807 c-337 -188 -613 -346 -613 -352 1 -38 6 -38 401 -1 516
49 476 43 484 75 10 42 52 99 96 131 58 41 133 55 204 37 l55 -14 21 71 c11
39 36 122 54 183 l34 112 -52 51 c-29 27 -56 49 -62 49 -5 -1 -286 -155 -622
-342z"/>
<path d="M8110 10038 c-13 -5 -49 -10 -80 -11 l-55 -2 -57 -193 -57 -194 28
-36 c40 -51 55 -104 48 -173 -9 -100 -78 -188 -173 -219 -30 -10 -36 -18 -50
-68 -9 -31 -74 -248 -143 -482 l-127 -426 46 -45 45 -45 560 285 561 285 -1
76 c0 82 15 121 66 175 l29 30 -301 520 c-165 286 -303 523 -307 526 -4 4 -18
3 -32 -3z"/>
<path d="M9386 9226 l-277 -271 23 -45 c18 -35 23 -61 23 -116 l0 -72 185 -85
c102 -46 323 -149 491 -227 l306 -142 47 36 c26 19 62 38 82 42 19 3 34 10 32
14 -2 4 -91 260 -198 569 -180 517 -197 561 -215 555 -49 -15 -135 -16 -178
-1 l-45 15 -276 -272z"/>
<path d="M7225 9410 c-99 -10 -287 -28 -419 -41 -218 -21 -239 -24 -244 -42
-21 -80 -99 -158 -178 -178 -29 -8 -44 -17 -44 -28 0 -31 40 -596 46 -637 5
-41 6 -42 52 -49 50 -7 95 -27 127 -55 20 -17 30 -8 479 434 l458 453 -30 54
c-16 30 -33 66 -36 82 -4 15 -12 26 -19 26 -6 -1 -93 -9 -192 -19z"/>
<path d="M7095 8766 l-467 -461 17 -40 c12 -27 16 -57 13 -97 -2 -32 -2 -58 1
-58 3 0 89 -9 191 -20 102 -11 190 -20 195 -20 6 0 17 16 24 36 17 48 74 110
125 137 31 16 59 21 114 22 l73 0 9 35 c5 19 67 229 138 466 l128 431 -47 15
-47 15 -467 -461z"/>
<path d="M9089 8624 c-44 -46 -98 -74 -157 -81 l-48 -5 -81 -391 -81 -391 42
-37 c32 -28 77 -93 81 -116 1 -1 280 92 620 206 l620 209 -3 68 c-2 38 1 81 7
95 l10 27 -482 223 c-265 122 -485 224 -488 225 -3 2 -21 -13 -40 -32z"/>
<path d="M8120 8364 l-555 -283 -6 -70 c-5 -46 -15 -85 -31 -114 l-25 -43 130
-167 130 -167 293 0 294 0 0 33 c0 45 41 128 80 160 51 43 88 58 159 65 l66 7
80 384 79 384 -24 16 c-14 9 -41 31 -61 49 -20 17 -40 31 -45 31 -5 -1 -259
-129 -564 -285z"/>
<path d="M9482 7741 c-338 -114 -618 -214 -623 -222 -5 -8 -9 -24 -9 -37 0
-52 -66 -146 -126 -180 -12 -7 -6 -49 46 -288 33 -153 63 -287 66 -298 6 -18
16 -18 170 -14 91 3 166 7 168 9 2 2 -20 94 -50 204 -29 110 -50 202 -46 206
4 3 189 79 412 169 223 90 428 173 455 185 48 21 56 30 169 205 107 164 118
183 101 192 -10 6 -35 26 -55 44 -21 19 -44 34 -51 33 -8 0 -290 -94 -627
-208z"/>
<path d="M3808 6298 c-43 -15 -61 -67 -66 -195 l-5 -113 87 0 86 0 0 118 c0
161 -29 215 -102 190z"/>
<path d="M4111 4861 c-28 -28 -40 -81 -42 -196 l-2 -100 84 0 84 0 -1 128 c-1
112 -4 132 -21 155 -26 35 -74 41 -102 13z"/>
<path d="M7227 4449 c-32 -19 -47 -72 -47 -169 0 -103 9 -130 46 -130 43 0 64
63 64 198 0 110 0 112 -22 112 -13 0 -31 -5 -41 -11z"/>
<path d="M1563 3346 c-40 -112 -73 -209 -73 -215 0 -7 47 -11 145 -11 108 0
145 3 145 12 0 18 -134 418 -140 418 -3 0 -38 -92 -77 -204z"/>
</g>
</svg>
